<?xml version="1.0" encoding="UTF-8"?>
<svg id="Guías" xmlns="http://www.w3.org/2000/svg" viewBox="0 0 128 128">
  <defs>
    <style>
      .cls-1 {
        stroke: #eef1f1;
        stroke-linecap: square;
        stroke-miterlimit: 10;
      }

      .cls-1, .cls-2 {
        fill: #eef1f1;
      }

      .cls-2 {
        font-family: YuGothicUI-Light, 'Yu Gothic UI';
        font-size: 34.8px;
        font-weight: 300;
      }
    </style>
  </defs>
  <g>
    <line class="cls-1" x1="4.06" y1="124" x2="44.06" y2="124"/>
    <line class="cls-1" x1="84" y1="124" x2="124" y2="124"/>
    <line class="cls-1" x1="4.03" y1="4.03" x2="4.03" y2="44.03"/>
    <line class="cls-1" x1="4.03" y1="83.97" x2="4.03" y2="123.97"/>
    <line class="cls-1" x1="84" y1="4" x2="124.03" y2="4"/>
    <line class="cls-1" x1="124.03" y1="4.03" x2="124.03" y2="44.03"/>
    <line class="cls-1" x1="4.06" y1="4" x2="44.06" y2="4"/>
    <line class="cls-1" x1="44" y1="4" x2="84" y2="4"/>
    <line class="cls-1" x1="44" y1="124" x2="84" y2="124"/>
    <line class="cls-1" x1="4.03" y1="43.97" x2="4.03" y2="83.97"/>
    <line class="cls-1" x1="124.03" y1="43.97" x2="124.03" y2="83.97"/>
    <line class="cls-1" x1="124.03" y1="83.97" x2="124.03" y2="123.97"/>
  </g>
  <g>
    <line class="cls-1" x1="83.98" y1="13.96" x2="83.98" y2="43.94"/>
    <line class="cls-1" x1="83.98" y1="43.98" x2="83.98" y2="83.96"/>
    <line class="cls-1" x1="83.97" y1="83.98" x2="83.97" y2="113.96"/>
    <line class="cls-1" x1="44.07" y1="13.96" x2="44.07" y2="43.94"/>
    <line class="cls-1" x1="44.07" y1="43.98" x2="44.07" y2="83.96"/>
    <line class="cls-1" x1="44.09" y1="83.98" x2="44.09" y2="113.96"/>
    <line class="cls-1" x1="14.39" y1="44.01" x2="44.32" y2="44.01"/>
    <line class="cls-1" x1="44.05" y1="44.01" x2="83.96" y2="44.01"/>
    <line class="cls-1" x1="84.46" y1="44.01" x2="114.39" y2="44.01"/>
    <line class="cls-1" x1="14.39" y1="83.99" x2="44.32" y2="83.99"/>
    <line class="cls-1" x1="44.05" y1="83.99" x2="83.96" y2="83.99"/>
    <line class="cls-1" x1="84.46" y1="83.99" x2="114.39" y2="83.99"/>
  </g>
  <text class="cls-2" transform="translate(15.09 35.56)"><tspan x="0" y="0">0</tspan></text>
  <text class="cls-2" transform="translate(95.05 35.56)"><tspan x="0" y="0">5</tspan></text>
  <text class="cls-2" transform="translate(55.32 113.96)"><tspan x="0" y="0">7</tspan></text>
  <text class="cls-2" transform="translate(55.13 74.67)"><tspan x="0" y="0">3</tspan></text>
  <text class="cls-2" transform="translate(13.82 74.67)"><tspan x="0" y="0">6</tspan></text>
  <text class="cls-2" transform="translate(94.78 74.67)"><tspan x="0" y="0">4</tspan></text>
  <text class="cls-2" transform="translate(17.85 113.96)"><tspan x="0" y="0">1</tspan></text>
  <text class="cls-2" transform="translate(55.04 35.56)"><tspan x="0" y="0">2</tspan></text>
  <text class="cls-2" transform="translate(95.05 114.44)"><tspan x="0" y="0">8</tspan></text>
</svg>